<mxfile host="65bd71144e">
    <diagram id="xxtGg2wU7yqez92tXx-T" name="Sistema de Aluguel de Carros ">
        <mxGraphModel dx="1876" dy="563" grid="1" gridSize="10" guides="1" tooltips="1" connect="1" arrows="1" fold="1" page="1" pageScale="1" pageWidth="827" pageHeight="1169" math="0" shadow="0">
            <root>
                <mxCell id="0"/>
                <mxCell id="1" parent="0"/>
                <mxCell id="84" style="edgeStyle=none;html=1;exitX=0.5;exitY=0;exitDx=0;exitDy=0;fontColor=#000000;endArrow=none;endFill=0;" parent="1" source="pFGFy_njNQS3AGyZRPE--76" target="85" edge="1">
                    <mxGeometry relative="1" as="geometry">
                        <mxPoint x="1000" y="220" as="targetPoint"/>
                    </mxGeometry>
                </mxCell>
                <mxCell id="86" style="edgeStyle=none;html=1;exitX=0.25;exitY=0;exitDx=0;exitDy=0;fontColor=#000000;endArrow=none;endFill=0;" parent="1" source="pFGFy_njNQS3AGyZRPE--76" target="87" edge="1">
                    <mxGeometry relative="1" as="geometry">
                        <mxPoint x="880" y="190" as="targetPoint"/>
                    </mxGeometry>
                </mxCell>
                <mxCell id="88" style="edgeStyle=none;html=1;exitX=1;exitY=0;exitDx=0;exitDy=0;fontColor=#000000;endArrow=none;endFill=0;" parent="1" source="pFGFy_njNQS3AGyZRPE--76" target="89" edge="1">
                    <mxGeometry relative="1" as="geometry">
                        <mxPoint x="1190" y="330" as="targetPoint"/>
                    </mxGeometry>
                </mxCell>
                <mxCell id="90" style="edgeStyle=none;html=1;exitX=0.75;exitY=1;exitDx=0;exitDy=0;fontColor=#000000;endArrow=none;endFill=0;" parent="1" source="pFGFy_njNQS3AGyZRPE--76" target="91" edge="1">
                    <mxGeometry relative="1" as="geometry">
                        <mxPoint x="1060" y="890" as="targetPoint"/>
                    </mxGeometry>
                </mxCell>
                <mxCell id="92" style="edgeStyle=none;html=1;exitX=0.25;exitY=1;exitDx=0;exitDy=0;fontColor=#000000;endArrow=none;endFill=0;" parent="1" source="pFGFy_njNQS3AGyZRPE--76" target="93" edge="1">
                    <mxGeometry relative="1" as="geometry">
                        <mxPoint x="960" y="810" as="targetPoint"/>
                    </mxGeometry>
                </mxCell>
                <mxCell id="pFGFy_njNQS3AGyZRPE--76" value="" style="rounded=0;whiteSpace=wrap;html=1;strokeColor=none;fontColor=#000000;fillColor=#FFFFFF;" parent="1" vertex="1">
                    <mxGeometry x="950" y="570" width="120" height="60" as="geometry"/>
                </mxCell>
                <mxCell id="5" value="" style="html=1;endArrow=none;endFill=0;entryX=0;entryY=0.5;entryDx=0;entryDy=0;" parent="1" source="2" target="6" edge="1">
                    <mxGeometry relative="1" as="geometry">
                        <mxPoint x="190" y="600" as="targetPoint"/>
                    </mxGeometry>
                </mxCell>
                <mxCell id="20" style="edgeStyle=none;html=1;exitX=0;exitY=0;exitDx=0;exitDy=0;fontColor=#000000;endArrow=none;endFill=0;entryX=1;entryY=1;entryDx=0;entryDy=0;" parent="1" source="2" target="21" edge="1">
                    <mxGeometry relative="1" as="geometry">
                        <mxPoint x="-10" y="480" as="targetPoint"/>
                    </mxGeometry>
                </mxCell>
                <mxCell id="24" style="edgeStyle=none;html=1;exitX=0.5;exitY=0;exitDx=0;exitDy=0;fontColor=#000000;endArrow=none;endFill=0;" parent="1" source="2" target="25" edge="1">
                    <mxGeometry relative="1" as="geometry">
                        <mxPoint x="30" y="385" as="targetPoint"/>
                        <mxPoint x="135" y="585" as="sourcePoint"/>
                    </mxGeometry>
                </mxCell>
                <mxCell id="27" style="edgeStyle=none;html=1;exitX=0;exitY=1;exitDx=0;exitDy=0;fontColor=#000000;endArrow=none;endFill=0;" parent="1" source="2" target="28" edge="1">
                    <mxGeometry relative="1" as="geometry">
                        <mxPoint x="-40" y="700" as="targetPoint"/>
                    </mxGeometry>
                </mxCell>
                <mxCell id="30" style="edgeStyle=none;html=1;exitX=0.5;exitY=1;exitDx=0;exitDy=0;fontColor=#000000;endArrow=none;endFill=0;" parent="1" source="2" target="31" edge="1">
                    <mxGeometry relative="1" as="geometry">
                        <mxPoint x="20.315789473684163" y="720" as="targetPoint"/>
                    </mxGeometry>
                </mxCell>
                <mxCell id="YFclPP9cMdC0-PAfr8tu-66" style="edgeStyle=none;shape=connector;rounded=1;html=1;exitX=0;exitY=0.5;exitDx=0;exitDy=0;labelBackgroundColor=default;strokeColor=default;fontFamily=Helvetica;fontSize=11;fontColor=#000000;endArrow=none;endFill=0;" parent="1" source="2" target="YFclPP9cMdC0-PAfr8tu-67" edge="1">
                    <mxGeometry relative="1" as="geometry">
                        <mxPoint x="-100" y="599.6666666666665" as="targetPoint"/>
                    </mxGeometry>
                </mxCell>
                <mxCell id="2" value="" style="rounded=0;whiteSpace=wrap;html=1;fillColor=#f9f7ed;strokeColor=none;" parent="1" vertex="1">
                    <mxGeometry x="-10" y="570" width="120" height="60" as="geometry"/>
                </mxCell>
                <mxCell id="12" value="" style="edgeStyle=none;html=1;fontColor=#000000;endArrow=none;endFill=0;startArrow=none;exitX=0;exitY=0.5;exitDx=0;exitDy=0;" parent="1" target="11" edge="1">
                    <mxGeometry relative="1" as="geometry">
                        <mxPoint x="950" y="600" as="sourcePoint"/>
                    </mxGeometry>
                </mxCell>
                <mxCell id="35" style="edgeStyle=none;html=1;exitX=0;exitY=0;exitDx=0;exitDy=0;fontColor=#000000;endArrow=none;endFill=0;" parent="1" source="6" target="36" edge="1">
                    <mxGeometry relative="1" as="geometry">
                        <mxPoint x="270" y="500" as="targetPoint"/>
                    </mxGeometry>
                </mxCell>
                <mxCell id="38" style="edgeStyle=none;html=1;exitX=1;exitY=0;exitDx=0;exitDy=0;fontColor=#FFFFFF;endArrow=none;endFill=0;" parent="1" source="6" target="39" edge="1">
                    <mxGeometry relative="1" as="geometry">
                        <mxPoint x="440" y="460" as="targetPoint"/>
                    </mxGeometry>
                </mxCell>
                <mxCell id="41" style="edgeStyle=none;html=1;exitX=0;exitY=1;exitDx=0;exitDy=0;fontColor=#000000;endArrow=none;endFill=0;" parent="1" source="6" target="42" edge="1">
                    <mxGeometry relative="1" as="geometry">
                        <mxPoint x="460" y="740" as="targetPoint"/>
                    </mxGeometry>
                </mxCell>
                <mxCell id="52" style="edgeStyle=none;html=1;exitX=1;exitY=1;exitDx=0;exitDy=0;fontColor=#000000;endArrow=none;endFill=0;" parent="1" source="6" target="53" edge="1">
                    <mxGeometry relative="1" as="geometry">
                        <mxPoint x="390" y="700" as="targetPoint"/>
                    </mxGeometry>
                </mxCell>
                <mxCell id="6" value="" style="rhombus;whiteSpace=wrap;html=1;fillColor=#f9f7ed;strokeColor=none;rounded=0;" parent="1" vertex="1">
                    <mxGeometry x="290" y="540" width="120" height="120" as="geometry"/>
                </mxCell>
                <mxCell id="9" value="Cliente" style="text;html=1;strokeColor=none;fillColor=none;align=center;verticalAlign=middle;whiteSpace=wrap;rounded=0;fontColor=#000000;" parent="1" vertex="1">
                    <mxGeometry x="20" y="585" width="60" height="30" as="geometry"/>
                </mxCell>
                <mxCell id="10" value="Alugar" style="text;html=1;strokeColor=none;fillColor=none;align=center;verticalAlign=middle;whiteSpace=wrap;rounded=0;fontColor=#000000;" parent="1" vertex="1">
                    <mxGeometry x="320" y="585" width="60" height="30" as="geometry"/>
                </mxCell>
                <mxCell id="55" style="edgeStyle=none;html=1;exitX=0.25;exitY=0;exitDx=0;exitDy=0;fontColor=#000000;endArrow=none;endFill=0;" parent="1" source="11" target="56" edge="1">
                    <mxGeometry relative="1" as="geometry">
                        <mxPoint x="640" y="440" as="targetPoint"/>
                    </mxGeometry>
                </mxCell>
                <mxCell id="58" style="edgeStyle=none;html=1;exitX=0.75;exitY=1;exitDx=0;exitDy=0;fontColor=#000000;endArrow=none;endFill=0;" parent="1" source="11" target="59" edge="1">
                    <mxGeometry relative="1" as="geometry">
                        <mxPoint x="700" y="790" as="targetPoint"/>
                    </mxGeometry>
                </mxCell>
                <mxCell id="61" style="edgeStyle=none;html=1;exitX=0.25;exitY=1;exitDx=0;exitDy=0;fontColor=#000000;endArrow=none;endFill=0;" parent="1" source="11" target="62" edge="1">
                    <mxGeometry relative="1" as="geometry">
                        <mxPoint x="550" y="900" as="targetPoint"/>
                    </mxGeometry>
                </mxCell>
                <mxCell id="64" style="edgeStyle=none;html=1;exitX=0.75;exitY=0;exitDx=0;exitDy=0;fontColor=#000000;endArrow=none;endFill=0;" parent="1" source="11" target="65" edge="1">
                    <mxGeometry relative="1" as="geometry">
                        <mxPoint x="790" y="360" as="targetPoint"/>
                    </mxGeometry>
                </mxCell>
                <mxCell id="zBVtbjsKA-3f5Eu_UvvL-68" style="edgeStyle=none;shape=connector;rounded=1;html=1;exitX=1;exitY=1;exitDx=0;exitDy=0;labelBackgroundColor=default;strokeColor=default;fontFamily=Helvetica;fontSize=11;fontColor=#FFFFFF;endArrow=none;endFill=0;" parent="1" source="11" target="zBVtbjsKA-3f5Eu_UvvL-69" edge="1">
                    <mxGeometry relative="1" as="geometry">
                        <mxPoint x="889.9999999999995" y="799.9999999999998" as="targetPoint"/>
                    </mxGeometry>
                </mxCell>
                <mxCell id="pFGFy_njNQS3AGyZRPE--79" style="edgeStyle=none;html=1;exitX=0;exitY=1;exitDx=0;exitDy=0;fontColor=#000000;endArrow=none;endFill=0;" parent="1" source="11" target="pFGFy_njNQS3AGyZRPE--80" edge="1">
                    <mxGeometry relative="1" as="geometry">
                        <mxPoint x="480" y="810" as="targetPoint"/>
                    </mxGeometry>
                </mxCell>
                <mxCell id="76" style="edgeStyle=none;html=1;exitX=0.5;exitY=0;exitDx=0;exitDy=0;endArrow=none;endFill=0;entryX=0.5;entryY=1;entryDx=0;entryDy=0;" parent="1" source="11" target="78" edge="1">
                    <mxGeometry relative="1" as="geometry">
                        <mxPoint x="850" y="475" as="targetPoint"/>
                    </mxGeometry>
                </mxCell>
                <mxCell id="11" value="" style="rounded=0;whiteSpace=wrap;html=1;fillColor=#f9f7ed;strokeColor=none;" parent="1" vertex="1">
                    <mxGeometry x="590" y="570" width="120" height="60" as="geometry"/>
                </mxCell>
                <mxCell id="13" value="Contrato_Aluguel" style="text;html=1;strokeColor=none;fillColor=none;align=center;verticalAlign=middle;whiteSpace=wrap;rounded=0;fontColor=#000000;" parent="1" vertex="1">
                    <mxGeometry x="600" y="585" width="100" height="30" as="geometry"/>
                </mxCell>
                <mxCell id="17" value="" style="edgeStyle=none;html=1;fontColor=#000000;endArrow=none;endFill=0;entryX=0;entryY=0.5;entryDx=0;entryDy=0;" parent="1" source="6" target="11" edge="1">
                    <mxGeometry relative="1" as="geometry">
                        <mxPoint x="310" y="600" as="sourcePoint"/>
                        <mxPoint x="590" y="600" as="targetPoint"/>
                    </mxGeometry>
                </mxCell>
                <mxCell id="44" style="edgeStyle=none;html=1;exitX=1;exitY=0;exitDx=0;exitDy=0;fontColor=#000000;endArrow=none;endFill=0;" parent="1" target="45" edge="1">
                    <mxGeometry relative="1" as="geometry">
                        <mxPoint x="1080" y="460" as="targetPoint"/>
                        <mxPoint x="1040" y="570" as="sourcePoint"/>
                    </mxGeometry>
                </mxCell>
                <mxCell id="47" style="edgeStyle=none;html=1;fontColor=#000000;endArrow=none;endFill=0;exitX=1;exitY=1;exitDx=0;exitDy=0;startArrow=none;" parent="1" source="pFGFy_njNQS3AGyZRPE--76" target="48" edge="1">
                    <mxGeometry relative="1" as="geometry">
                        <mxPoint x="920" y="740" as="targetPoint"/>
                        <mxPoint x="1040" y="630" as="sourcePoint"/>
                    </mxGeometry>
                </mxCell>
                <mxCell id="73" value="" style="edgeStyle=none;html=1;endArrow=none;endFill=0;" parent="1" target="72" edge="1">
                    <mxGeometry relative="1" as="geometry">
                        <mxPoint x="1070" y="600" as="sourcePoint"/>
                    </mxGeometry>
                </mxCell>
                <mxCell id="19" value="Veículo" style="text;html=1;strokeColor=none;fillColor=none;align=center;verticalAlign=middle;whiteSpace=wrap;rounded=0;fontColor=#000000;" parent="1" vertex="1">
                    <mxGeometry x="980" y="585" width="60" height="30" as="geometry"/>
                </mxCell>
                <mxCell id="21" value="" style="ellipse;whiteSpace=wrap;html=1;aspect=fixed;fillColor=#f9f7ed;strokeColor=none;" parent="1" vertex="1">
                    <mxGeometry x="-130" y="450" width="70" height="70" as="geometry"/>
                </mxCell>
                <mxCell id="22" value="Nome" style="text;html=1;strokeColor=none;fillColor=none;align=center;verticalAlign=middle;whiteSpace=wrap;rounded=0;fontColor=#000000;" parent="1" vertex="1">
                    <mxGeometry x="-125" y="470" width="60" height="30" as="geometry"/>
                </mxCell>
                <mxCell id="25" value="" style="ellipse;whiteSpace=wrap;html=1;aspect=fixed;fillColor=#f9f7ed;strokeColor=none;" parent="1" vertex="1">
                    <mxGeometry x="15" y="405" width="70" height="70" as="geometry"/>
                </mxCell>
                <mxCell id="26" value="Tipo" style="text;html=1;strokeColor=none;fillColor=none;align=center;verticalAlign=middle;whiteSpace=wrap;rounded=0;fontColor=#000000;" parent="1" vertex="1">
                    <mxGeometry x="20" y="425" width="60" height="30" as="geometry"/>
                </mxCell>
                <mxCell id="28" value="" style="ellipse;whiteSpace=wrap;html=1;aspect=fixed;fillColor=#f9f7ed;strokeColor=none;" parent="1" vertex="1">
                    <mxGeometry x="-120" y="690" width="70" height="70" as="geometry"/>
                </mxCell>
                <mxCell id="29" value="Gênero" style="text;html=1;strokeColor=none;fillColor=none;align=center;verticalAlign=middle;whiteSpace=wrap;rounded=0;fontColor=#000000;" parent="1" vertex="1">
                    <mxGeometry x="-115" y="710" width="60" height="30" as="geometry"/>
                </mxCell>
                <mxCell id="31" value="" style="ellipse;whiteSpace=wrap;html=1;aspect=fixed;fillColor=#f9f7ed;strokeColor=none;" parent="1" vertex="1">
                    <mxGeometry x="40" y="760" width="70" height="70" as="geometry"/>
                </mxCell>
                <mxCell id="32" value="Idade" style="text;html=1;strokeColor=none;fillColor=none;align=center;verticalAlign=middle;whiteSpace=wrap;rounded=0;fontColor=#000000;" parent="1" vertex="1">
                    <mxGeometry x="45" y="780" width="60" height="30" as="geometry"/>
                </mxCell>
                <mxCell id="36" value="" style="ellipse;whiteSpace=wrap;html=1;aspect=fixed;fontColor=#333333;fillColor=#f5f5f5;strokeColor=none;" parent="1" vertex="1">
                    <mxGeometry x="230" y="420" width="60" height="60" as="geometry"/>
                </mxCell>
                <mxCell id="37" value="ID" style="text;html=1;strokeColor=none;fillColor=none;align=center;verticalAlign=middle;whiteSpace=wrap;rounded=0;fontColor=#000000;" parent="1" vertex="1">
                    <mxGeometry x="230" y="435" width="60" height="30" as="geometry"/>
                </mxCell>
                <mxCell id="39" value="" style="ellipse;whiteSpace=wrap;html=1;aspect=fixed;fontColor=#FFFFFF;fillColor=#FFFFFF;strokeColor=none;" parent="1" vertex="1">
                    <mxGeometry x="370" y="380" width="80" height="80" as="geometry"/>
                </mxCell>
                <mxCell id="40" value="Taxa" style="text;html=1;strokeColor=none;fillColor=none;align=center;verticalAlign=middle;whiteSpace=wrap;rounded=0;fontColor=#000000;" parent="1" vertex="1">
                    <mxGeometry x="380" y="405" width="60" height="30" as="geometry"/>
                </mxCell>
                <mxCell id="42" value="" style="ellipse;whiteSpace=wrap;html=1;aspect=fixed;fontColor=#333333;fillColor=#f5f5f5;strokeColor=none;" parent="1" vertex="1">
                    <mxGeometry x="250" y="695" width="80" height="80" as="geometry"/>
                </mxCell>
                <mxCell id="43" value="Data/hora" style="text;html=1;strokeColor=none;fillColor=none;align=center;verticalAlign=middle;whiteSpace=wrap;rounded=0;fontColor=#000000;" parent="1" vertex="1">
                    <mxGeometry x="260" y="720" width="60" height="30" as="geometry"/>
                </mxCell>
                <mxCell id="45" value="Tipo" style="ellipse;whiteSpace=wrap;html=1;aspect=fixed;fontColor=#333333;strokeColor=#666666;fillColor=#f5f5f5;" parent="1" vertex="1">
                    <mxGeometry x="1070" y="230" width="80" height="80" as="geometry"/>
                </mxCell>
                <mxCell id="48" value="Modelo" style="ellipse;whiteSpace=wrap;html=1;aspect=fixed;fontColor=#333333;strokeColor=#666666;fillColor=#f5f5f5;" parent="1" vertex="1">
                    <mxGeometry x="1170" y="890" width="80" height="80" as="geometry"/>
                </mxCell>
                <mxCell id="53" value="" style="ellipse;whiteSpace=wrap;html=1;aspect=fixed;fontColor=#333333;strokeColor=#666666;fillColor=#f5f5f5;" parent="1" vertex="1">
                    <mxGeometry x="350" y="660" width="80" height="80" as="geometry"/>
                </mxCell>
                <mxCell id="54" value="Validade" style="text;html=1;strokeColor=none;fillColor=none;align=center;verticalAlign=middle;whiteSpace=wrap;rounded=0;fontColor=#000000;" parent="1" vertex="1">
                    <mxGeometry x="360" y="685" width="60" height="30" as="geometry"/>
                </mxCell>
                <mxCell id="zBVtbjsKA-3f5Eu_UvvL-66" value="(1:1)" style="text;html=1;strokeColor=none;fillColor=none;align=center;verticalAlign=middle;whiteSpace=wrap;rounded=0;fontFamily=Helvetica;fontSize=11;fontColor=#FFFFFF;" parent="1" vertex="1">
                    <mxGeometry x="110" y="570" width="180" height="30" as="geometry"/>
                </mxCell>
                <mxCell id="zBVtbjsKA-3f5Eu_UvvL-67" value="(1:1)" style="text;html=1;strokeColor=none;fillColor=none;align=center;verticalAlign=middle;whiteSpace=wrap;rounded=0;fontFamily=Helvetica;fontSize=11;fontColor=#FFFFFF;" parent="1" vertex="1">
                    <mxGeometry x="410" y="570" width="180" height="30" as="geometry"/>
                </mxCell>
                <mxCell id="dZwi6wYJvxEGnWO49I2V-66" value="(1:1)" style="text;html=1;strokeColor=none;fillColor=none;align=center;verticalAlign=middle;whiteSpace=wrap;rounded=0;fontFamily=Helvetica;fontSize=11;fontColor=#FFFFFF;" parent="1" vertex="1">
                    <mxGeometry x="810" y="570" width="50" height="30" as="geometry"/>
                </mxCell>
                <mxCell id="YFclPP9cMdC0-PAfr8tu-67" value="" style="ellipse;whiteSpace=wrap;html=1;aspect=fixed;fontFamily=Helvetica;fontSize=11;fontColor=#000000;fillColor=#f5f5f5;" parent="1" vertex="1">
                    <mxGeometry x="-200" y="559.6666666666665" width="80" height="80" as="geometry"/>
                </mxCell>
                <mxCell id="YFclPP9cMdC0-PAfr8tu-68" value="ID" style="text;html=1;strokeColor=none;fillColor=none;align=center;verticalAlign=middle;whiteSpace=wrap;rounded=0;fontFamily=Helvetica;fontSize=11;fontColor=#000000;" parent="1" vertex="1">
                    <mxGeometry x="-190" y="585" width="60" height="30" as="geometry"/>
                </mxCell>
                <mxCell id="94" style="edgeStyle=none;html=1;exitX=0.25;exitY=1;exitDx=0;exitDy=0;fontColor=#000000;endArrow=none;endFill=0;" parent="1" source="72" target="95" edge="1">
                    <mxGeometry relative="1" as="geometry">
                        <mxPoint x="1340" y="840" as="targetPoint"/>
                    </mxGeometry>
                </mxCell>
                <mxCell id="96" style="edgeStyle=none;html=1;exitX=0.5;exitY=0;exitDx=0;exitDy=0;fontColor=#000000;endArrow=none;endFill=0;" parent="1" source="72" target="97" edge="1">
                    <mxGeometry relative="1" as="geometry">
                        <mxPoint x="1420" y="380" as="targetPoint"/>
                    </mxGeometry>
                </mxCell>
                <mxCell id="98" style="edgeStyle=none;html=1;exitX=0.75;exitY=1;exitDx=0;exitDy=0;fontColor=#000000;endArrow=none;endFill=0;" parent="1" source="72" target="99" edge="1">
                    <mxGeometry relative="1" as="geometry">
                        <mxPoint x="1520" y="840" as="targetPoint"/>
                    </mxGeometry>
                </mxCell>
                <mxCell id="100" style="edgeStyle=none;html=1;exitX=1;exitY=0.25;exitDx=0;exitDy=0;fontColor=#000000;endArrow=none;endFill=0;" parent="1" source="72" target="101" edge="1">
                    <mxGeometry relative="1" as="geometry">
                        <mxPoint x="1570" y="480" as="targetPoint"/>
                    </mxGeometry>
                </mxCell>
                <mxCell id="72" value="" style="whiteSpace=wrap;html=1;fillColor=#f9f7ed;strokeColor=none;" parent="1" vertex="1">
                    <mxGeometry x="1300" y="570" width="120" height="60" as="geometry"/>
                </mxCell>
                <mxCell id="74" value="Local" style="text;html=1;align=center;verticalAlign=middle;resizable=0;points=[];autosize=1;strokeColor=none;fillColor=none;fontColor=#000000;" parent="1" vertex="1">
                    <mxGeometry x="1335" y="585" width="50" height="30" as="geometry"/>
                </mxCell>
                <mxCell id="pFGFy_njNQS3AGyZRPE--77" value="" style="edgeStyle=none;html=1;fontColor=#000000;endArrow=none;endFill=0;exitX=1;exitY=1;exitDx=0;exitDy=0;" parent="1" target="pFGFy_njNQS3AGyZRPE--76" edge="1">
                    <mxGeometry relative="1" as="geometry">
                        <mxPoint x="1143.8027784633218" y="749.7724366884481" as="targetPoint"/>
                        <mxPoint x="1040" y="630" as="sourcePoint"/>
                    </mxGeometry>
                </mxCell>
                <mxCell id="pFGFy_njNQS3AGyZRPE--78" value="(1:1)" style="text;html=1;strokeColor=none;fillColor=none;align=center;verticalAlign=middle;whiteSpace=wrap;rounded=0;fontFamily=Helvetica;fontSize=11;fontColor=#FFFFFF;" parent="1" vertex="1">
                    <mxGeometry x="1160" y="570" width="50" height="30" as="geometry"/>
                </mxCell>
                <mxCell id="pFGFy_njNQS3AGyZRPE--80" value="Contratado" style="ellipse;whiteSpace=wrap;html=1;aspect=fixed;strokeColor=default;fontColor=#000000;fillColor=#FFFFFF;" parent="1" vertex="1">
                    <mxGeometry x="420" y="775" width="80" height="80" as="geometry"/>
                </mxCell>
                <mxCell id="78" value="&lt;font color=&quot;#000000&quot;&gt;Valor&lt;/font&gt;" style="ellipse;whiteSpace=wrap;html=1;aspect=fixed;fillColor=#FFFFFF;" parent="1" vertex="1">
                    <mxGeometry x="620" y="260" width="80" height="80" as="geometry"/>
                </mxCell>
                <mxCell id="79" value="" style="group" parent="1" vertex="1" connectable="0">
                    <mxGeometry x="660" y="910" width="80" height="80" as="geometry"/>
                </mxCell>
                <mxCell id="59" value="" style="ellipse;whiteSpace=wrap;html=1;aspect=fixed;fontColor=#333333;fillColor=#f5f5f5;strokeColor=none;" parent="79" vertex="1">
                    <mxGeometry width="80" height="80" as="geometry"/>
                </mxCell>
                <mxCell id="60" value="Validade" style="text;html=1;strokeColor=none;fillColor=none;align=center;verticalAlign=middle;whiteSpace=wrap;rounded=0;fontColor=#000000;" parent="79" vertex="1">
                    <mxGeometry x="10" y="25" width="60" height="30" as="geometry"/>
                </mxCell>
                <mxCell id="80" value="" style="group" parent="1" vertex="1" connectable="0">
                    <mxGeometry x="750" y="320" width="80" height="80" as="geometry"/>
                </mxCell>
                <mxCell id="65" value="" style="ellipse;whiteSpace=wrap;html=1;aspect=fixed;fontColor=#333333;strokeColor=#666666;fillColor=#f5f5f5;" parent="80" vertex="1">
                    <mxGeometry width="80" height="80" as="geometry"/>
                </mxCell>
                <mxCell id="66" value="Descrição" style="text;html=1;strokeColor=none;fillColor=none;align=center;verticalAlign=middle;whiteSpace=wrap;rounded=0;fontColor=#000000;" parent="80" vertex="1">
                    <mxGeometry x="10" y="25" width="60" height="30" as="geometry"/>
                </mxCell>
                <mxCell id="81" value="" style="group" parent="1" vertex="1" connectable="0">
                    <mxGeometry x="520" y="375" width="80" height="80" as="geometry"/>
                </mxCell>
                <mxCell id="56" value="" style="ellipse;whiteSpace=wrap;html=1;aspect=fixed;fontColor=#333333;fillColor=#f5f5f5;strokeColor=none;" parent="81" vertex="1">
                    <mxGeometry width="80" height="80" as="geometry"/>
                </mxCell>
                <mxCell id="57" value="Tipo" style="text;html=1;strokeColor=none;fillColor=none;align=center;verticalAlign=middle;whiteSpace=wrap;rounded=0;fontColor=#000000;" parent="81" vertex="1">
                    <mxGeometry x="10" y="25" width="60" height="30" as="geometry"/>
                </mxCell>
                <mxCell id="82" value="" style="group" parent="1" vertex="1" connectable="0">
                    <mxGeometry x="510" y="860" width="80" height="80" as="geometry"/>
                </mxCell>
                <mxCell id="62" value="" style="ellipse;whiteSpace=wrap;html=1;aspect=fixed;fontColor=#333333;fillColor=#f5f5f5;strokeColor=none;" parent="82" vertex="1">
                    <mxGeometry width="80" height="80" as="geometry"/>
                </mxCell>
                <mxCell id="63" value="Contratante" style="text;html=1;strokeColor=none;fillColor=none;align=center;verticalAlign=middle;whiteSpace=wrap;rounded=0;fontColor=#000000;" parent="82" vertex="1">
                    <mxGeometry x="10" y="25" width="60" height="30" as="geometry"/>
                </mxCell>
                <mxCell id="83" value="" style="group" parent="1" vertex="1" connectable="0">
                    <mxGeometry x="809.9999999999995" y="829.9999999999998" width="80" height="80" as="geometry"/>
                </mxCell>
                <mxCell id="zBVtbjsKA-3f5Eu_UvvL-69" value="" style="ellipse;whiteSpace=wrap;html=1;aspect=fixed;fontFamily=Helvetica;fontSize=11;fontColor=#FFFFFF;fillColor=#f5f5f5;" parent="83" vertex="1">
                    <mxGeometry width="80" height="80" as="geometry"/>
                </mxCell>
                <mxCell id="zBVtbjsKA-3f5Eu_UvvL-70" value="ID" style="text;html=1;strokeColor=none;fillColor=none;align=center;verticalAlign=middle;whiteSpace=wrap;rounded=0;fontFamily=Helvetica;fontSize=11;fontColor=#000000;" parent="83" vertex="1">
                    <mxGeometry x="10.000000000000455" y="25.000000000000227" width="60" height="30" as="geometry"/>
                </mxCell>
                <mxCell id="85" value="Cor" style="ellipse;whiteSpace=wrap;html=1;aspect=fixed;fontColor=#000000;fillColor=#FFFFFF;" parent="1" vertex="1">
                    <mxGeometry x="960" y="180" width="80" height="80" as="geometry"/>
                </mxCell>
                <mxCell id="87" value="Placa" style="ellipse;whiteSpace=wrap;html=1;aspect=fixed;fontColor=#000000;fillColor=#FFFFFF;" parent="1" vertex="1">
                    <mxGeometry x="840" y="150" width="80" height="80" as="geometry"/>
                </mxCell>
                <mxCell id="89" value="Ano" style="ellipse;whiteSpace=wrap;html=1;aspect=fixed;fontColor=#000000;fillColor=#FFFFFF;" parent="1" vertex="1">
                    <mxGeometry x="1180" y="310" width="80" height="80" as="geometry"/>
                </mxCell>
                <mxCell id="91" value="Kilometragem" style="ellipse;whiteSpace=wrap;html=1;aspect=fixed;fontColor=#000000;fillColor=#FFFFFF;" parent="1" vertex="1">
                    <mxGeometry x="990" y="870" width="80" height="80" as="geometry"/>
                </mxCell>
                <mxCell id="93" value="ID&amp;nbsp;" style="ellipse;whiteSpace=wrap;html=1;aspect=fixed;fontColor=#000000;fillColor=#FFFFFF;" parent="1" vertex="1">
                    <mxGeometry x="920" y="770" width="80" height="80" as="geometry"/>
                </mxCell>
                <mxCell id="95" value="ID" style="ellipse;whiteSpace=wrap;html=1;aspect=fixed;fontColor=#000000;fillColor=#FFFFFF;" parent="1" vertex="1">
                    <mxGeometry x="1300" y="800" width="80" height="80" as="geometry"/>
                </mxCell>
                <mxCell id="97" value="Endereço" style="ellipse;whiteSpace=wrap;html=1;aspect=fixed;fontColor=#000000;fillColor=#FFFFFF;" parent="1" vertex="1">
                    <mxGeometry x="1380" y="340" width="80" height="80" as="geometry"/>
                </mxCell>
                <mxCell id="99" value="CEP" style="ellipse;whiteSpace=wrap;html=1;aspect=fixed;fontColor=#000000;fillColor=#FFFFFF;" parent="1" vertex="1">
                    <mxGeometry x="1480" y="800" width="80" height="80" as="geometry"/>
                </mxCell>
                <mxCell id="101" value="Nome" style="ellipse;whiteSpace=wrap;html=1;aspect=fixed;fontColor=#000000;fillColor=#FFFFFF;" parent="1" vertex="1">
                    <mxGeometry x="1530" y="440" width="80" height="80" as="geometry"/>
                </mxCell>
            </root>
        </mxGraphModel>
    </diagram>
    <diagram id="1M4WCyiPqBJGXV5D22og" name="Sistema de Gerenciamento de E-commerce">
        <mxGraphModel dx="2830" dy="2597" grid="1" gridSize="10" guides="1" tooltips="1" connect="1" arrows="1" fold="1" page="1" pageScale="1" pageWidth="850" pageHeight="1100" math="0" shadow="0">
            <root>
                <mxCell id="0"/>
                <mxCell id="1" parent="0"/>
                <mxCell id="eLOhmJnXAVCqOYRDWn_L-15" style="edgeStyle=none;html=1;exitX=0.25;exitY=0;exitDx=0;exitDy=0;fontColor=#ffffff;endArrow=none;endFill=0;" edge="1" parent="1" source="5UXtcH4mES-yL4AqIS6D-11" target="eLOhmJnXAVCqOYRDWn_L-16">
                    <mxGeometry relative="1" as="geometry">
                        <mxPoint x="-580" y="230" as="targetPoint"/>
                    </mxGeometry>
                </mxCell>
                <mxCell id="eLOhmJnXAVCqOYRDWn_L-17" style="edgeStyle=none;html=1;exitX=0.5;exitY=0;exitDx=0;exitDy=0;fontColor=#000000;endArrow=none;endFill=0;" edge="1" parent="1" source="5UXtcH4mES-yL4AqIS6D-11" target="eLOhmJnXAVCqOYRDWn_L-18">
                    <mxGeometry relative="1" as="geometry">
                        <mxPoint x="-430.0000000000001" y="230" as="targetPoint"/>
                    </mxGeometry>
                </mxCell>
                <mxCell id="eLOhmJnXAVCqOYRDWn_L-19" style="edgeStyle=none;html=1;exitX=0.25;exitY=1;exitDx=0;exitDy=0;fontColor=#000000;endArrow=none;endFill=0;" edge="1" parent="1" source="5UXtcH4mES-yL4AqIS6D-11" target="eLOhmJnXAVCqOYRDWn_L-20">
                    <mxGeometry relative="1" as="geometry">
                        <mxPoint x="-560" y="800" as="targetPoint"/>
                    </mxGeometry>
                </mxCell>
                <mxCell id="eLOhmJnXAVCqOYRDWn_L-21" style="edgeStyle=none;html=1;exitX=0.5;exitY=1;exitDx=0;exitDy=0;fontColor=#000000;endArrow=none;endFill=0;" edge="1" parent="1" source="5UXtcH4mES-yL4AqIS6D-11" target="eLOhmJnXAVCqOYRDWn_L-22">
                    <mxGeometry relative="1" as="geometry">
                        <mxPoint x="-390" y="780" as="targetPoint"/>
                    </mxGeometry>
                </mxCell>
                <mxCell id="eLOhmJnXAVCqOYRDWn_L-23" style="edgeStyle=none;html=1;exitX=0;exitY=0.5;exitDx=0;exitDy=0;fontColor=#000000;endArrow=none;endFill=0;" edge="1" parent="1" source="5UXtcH4mES-yL4AqIS6D-11" target="eLOhmJnXAVCqOYRDWn_L-24">
                    <mxGeometry relative="1" as="geometry">
                        <mxPoint x="-670" y="630" as="targetPoint"/>
                    </mxGeometry>
                </mxCell>
                <mxCell id="eLOhmJnXAVCqOYRDWn_L-25" style="edgeStyle=none;html=1;exitX=0;exitY=0.25;exitDx=0;exitDy=0;fontColor=#000000;endArrow=none;endFill=0;" edge="1" parent="1" source="5UXtcH4mES-yL4AqIS6D-11" target="eLOhmJnXAVCqOYRDWn_L-26">
                    <mxGeometry relative="1" as="geometry">
                        <mxPoint x="-680" y="400" as="targetPoint"/>
                    </mxGeometry>
                </mxCell>
                <mxCell id="eLOhmJnXAVCqOYRDWn_L-29" style="edgeStyle=none;html=1;exitX=0.75;exitY=0;exitDx=0;exitDy=0;fontColor=#000000;endArrow=none;endFill=0;" edge="1" parent="1" source="5UXtcH4mES-yL4AqIS6D-11" target="eLOhmJnXAVCqOYRDWn_L-30">
                    <mxGeometry relative="1" as="geometry">
                        <mxPoint x="-360" y="360" as="targetPoint"/>
                    </mxGeometry>
                </mxCell>
                <mxCell id="5UXtcH4mES-yL4AqIS6D-11" value="Cliente" style="rounded=0;whiteSpace=wrap;html=1;shadow=0;glass=0;sketch=0;fontColor=#333333;strokeColor=#666666;fillColor=#f5f5f5;" parent="1" vertex="1">
                    <mxGeometry x="-520" y="520" width="120" height="60" as="geometry"/>
                </mxCell>
                <mxCell id="eLOhmJnXAVCqOYRDWn_L-6" value="&lt;font color=&quot;#ffffff&quot;&gt;1:N&lt;/font&gt;" style="edgeStyle=none;html=1;fontColor=#000000;endArrow=none;endFill=0;" edge="1" parent="1" source="5UXtcH4mES-yL4AqIS6D-11" target="eLOhmJnXAVCqOYRDWn_L-5">
                    <mxGeometry relative="1" as="geometry">
                        <mxPoint x="-400" y="550" as="sourcePoint"/>
                    </mxGeometry>
                </mxCell>
                <mxCell id="eLOhmJnXAVCqOYRDWn_L-9" value="&lt;font color=&quot;#ffffff&quot;&gt;1:1&lt;/font&gt;" style="edgeStyle=none;html=1;exitX=1;exitY=0.5;exitDx=0;exitDy=0;fontColor=#000000;endArrow=none;endFill=0;startArrow=none;" edge="1" parent="1" source="eLOhmJnXAVCqOYRDWn_L-12" target="eLOhmJnXAVCqOYRDWn_L-10">
                    <mxGeometry relative="1" as="geometry">
                        <mxPoint x="-10" y="550" as="targetPoint"/>
                    </mxGeometry>
                </mxCell>
                <mxCell id="eLOhmJnXAVCqOYRDWn_L-27" style="edgeStyle=none;html=1;exitX=0.25;exitY=0;exitDx=0;exitDy=0;fontColor=#000000;endArrow=none;endFill=0;" edge="1" parent="1" source="eLOhmJnXAVCqOYRDWn_L-5" target="eLOhmJnXAVCqOYRDWn_L-28">
                    <mxGeometry relative="1" as="geometry">
                        <mxPoint x="-240" y="240.0000000000001" as="targetPoint"/>
                    </mxGeometry>
                </mxCell>
                <mxCell id="eLOhmJnXAVCqOYRDWn_L-31" style="edgeStyle=none;html=1;exitX=0.5;exitY=0;exitDx=0;exitDy=0;fontColor=#000000;endArrow=none;endFill=0;" edge="1" parent="1" source="eLOhmJnXAVCqOYRDWn_L-5" target="eLOhmJnXAVCqOYRDWn_L-32">
                    <mxGeometry relative="1" as="geometry">
                        <mxPoint x="-100" y="160" as="targetPoint"/>
                    </mxGeometry>
                </mxCell>
                <mxCell id="eLOhmJnXAVCqOYRDWn_L-33" style="edgeStyle=none;html=1;exitX=0.25;exitY=1;exitDx=0;exitDy=0;fontColor=#000000;endArrow=none;endFill=0;" edge="1" parent="1" source="eLOhmJnXAVCqOYRDWn_L-5" target="eLOhmJnXAVCqOYRDWn_L-34">
                    <mxGeometry relative="1" as="geometry">
                        <mxPoint x="-219.80952380952385" y="840" as="targetPoint"/>
                    </mxGeometry>
                </mxCell>
                <mxCell id="eLOhmJnXAVCqOYRDWn_L-35" style="edgeStyle=none;html=1;exitX=0.5;exitY=1;exitDx=0;exitDy=0;fontColor=#000000;endArrow=none;endFill=0;" edge="1" parent="1" source="eLOhmJnXAVCqOYRDWn_L-5" target="eLOhmJnXAVCqOYRDWn_L-36">
                    <mxGeometry relative="1" as="geometry">
                        <mxPoint x="-110" y="750" as="targetPoint"/>
                    </mxGeometry>
                </mxCell>
                <mxCell id="eLOhmJnXAVCqOYRDWn_L-37" style="edgeStyle=none;html=1;exitX=0.75;exitY=0;exitDx=0;exitDy=0;fontColor=#000000;endArrow=none;endFill=0;" edge="1" parent="1" source="eLOhmJnXAVCqOYRDWn_L-5" target="eLOhmJnXAVCqOYRDWn_L-38">
                    <mxGeometry relative="1" as="geometry">
                        <mxPoint x="10" y="270.0000000000001" as="targetPoint"/>
                    </mxGeometry>
                </mxCell>
                <mxCell id="eLOhmJnXAVCqOYRDWn_L-39" style="edgeStyle=none;html=1;exitX=0.75;exitY=1;exitDx=0;exitDy=0;fontColor=#000000;endArrow=none;endFill=0;" edge="1" parent="1" source="eLOhmJnXAVCqOYRDWn_L-5" target="eLOhmJnXAVCqOYRDWn_L-40">
                    <mxGeometry relative="1" as="geometry">
                        <mxPoint x="80" y="850" as="targetPoint"/>
                    </mxGeometry>
                </mxCell>
                <mxCell id="eLOhmJnXAVCqOYRDWn_L-41" style="edgeStyle=none;html=1;exitX=0;exitY=1;exitDx=0;exitDy=0;fontColor=#000000;endArrow=none;endFill=0;" edge="1" parent="1" source="eLOhmJnXAVCqOYRDWn_L-5" target="eLOhmJnXAVCqOYRDWn_L-42">
                    <mxGeometry relative="1" as="geometry">
                        <mxPoint x="-320" y="640" as="targetPoint"/>
                    </mxGeometry>
                </mxCell>
                <mxCell id="eLOhmJnXAVCqOYRDWn_L-5" value="Produto" style="whiteSpace=wrap;html=1;fontColor=#000000;fillColor=#FFFFFF;" vertex="1" parent="1">
                    <mxGeometry x="-250" y="520" width="120" height="60" as="geometry"/>
                </mxCell>
                <mxCell id="eLOhmJnXAVCqOYRDWn_L-11" value="&lt;font color=&quot;#ffffff&quot;&gt;1:1&lt;/font&gt;" style="edgeStyle=none;html=1;exitX=1;exitY=0.5;exitDx=0;exitDy=0;fontColor=#000000;endArrow=none;endFill=0;" edge="1" parent="1" source="eLOhmJnXAVCqOYRDWn_L-10" target="eLOhmJnXAVCqOYRDWn_L-14">
                    <mxGeometry relative="1" as="geometry">
                        <mxPoint x="560" y="550" as="targetPoint"/>
                    </mxGeometry>
                </mxCell>
                <mxCell id="eLOhmJnXAVCqOYRDWn_L-53" style="edgeStyle=none;html=1;exitX=0.5;exitY=1;exitDx=0;exitDy=0;fontColor=#000000;endArrow=none;endFill=0;" edge="1" parent="1" source="eLOhmJnXAVCqOYRDWn_L-10" target="eLOhmJnXAVCqOYRDWn_L-54">
                    <mxGeometry relative="1" as="geometry">
                        <mxPoint x="320.19047619047615" y="780" as="targetPoint"/>
                    </mxGeometry>
                </mxCell>
                <mxCell id="eLOhmJnXAVCqOYRDWn_L-55" style="edgeStyle=none;html=1;exitX=1;exitY=1;exitDx=0;exitDy=0;fontColor=#000000;endArrow=none;endFill=0;" edge="1" parent="1" source="eLOhmJnXAVCqOYRDWn_L-10" target="eLOhmJnXAVCqOYRDWn_L-56">
                    <mxGeometry relative="1" as="geometry">
                        <mxPoint x="460" y="710" as="targetPoint"/>
                    </mxGeometry>
                </mxCell>
                <mxCell id="eLOhmJnXAVCqOYRDWn_L-57" style="edgeStyle=none;html=1;exitX=1;exitY=0;exitDx=0;exitDy=0;fontColor=#000000;endArrow=none;endFill=0;" edge="1" parent="1" source="eLOhmJnXAVCqOYRDWn_L-10" target="eLOhmJnXAVCqOYRDWn_L-58">
                    <mxGeometry relative="1" as="geometry">
                        <mxPoint x="470" y="420" as="targetPoint"/>
                    </mxGeometry>
                </mxCell>
                <mxCell id="eLOhmJnXAVCqOYRDWn_L-59" style="edgeStyle=none;html=1;exitX=0.5;exitY=0;exitDx=0;exitDy=0;fontColor=#000000;endArrow=none;endFill=0;" edge="1" parent="1" source="eLOhmJnXAVCqOYRDWn_L-10" target="eLOhmJnXAVCqOYRDWn_L-60">
                    <mxGeometry relative="1" as="geometry">
                        <mxPoint x="320.19047619047615" y="260.0000000000001" as="targetPoint"/>
                    </mxGeometry>
                </mxCell>
                <mxCell id="eLOhmJnXAVCqOYRDWn_L-61" style="edgeStyle=none;html=1;exitX=0;exitY=1;exitDx=0;exitDy=0;fontColor=#000000;endArrow=none;endFill=0;" edge="1" parent="1" source="eLOhmJnXAVCqOYRDWn_L-10" target="eLOhmJnXAVCqOYRDWn_L-62">
                    <mxGeometry relative="1" as="geometry">
                        <mxPoint x="230" y="670" as="targetPoint"/>
                    </mxGeometry>
                </mxCell>
                <mxCell id="eLOhmJnXAVCqOYRDWn_L-63" style="edgeStyle=none;html=1;exitX=0;exitY=0;exitDx=0;exitDy=0;fontColor=#000000;endArrow=none;endFill=0;" edge="1" parent="1" source="eLOhmJnXAVCqOYRDWn_L-10" target="eLOhmJnXAVCqOYRDWn_L-64">
                    <mxGeometry relative="1" as="geometry">
                        <mxPoint x="450" y="280.0000000000001" as="targetPoint"/>
                    </mxGeometry>
                </mxCell>
                <mxCell id="eLOhmJnXAVCqOYRDWn_L-10" value="Compra" style="rhombus;whiteSpace=wrap;html=1;fontColor=#000000;fillColor=#FFFFFF;" vertex="1" parent="1">
                    <mxGeometry x="260" y="490" width="120" height="120" as="geometry"/>
                </mxCell>
                <mxCell id="eLOhmJnXAVCqOYRDWn_L-13" value="&lt;font color=&quot;#ffffff&quot;&gt;N:1&lt;/font&gt;" style="edgeStyle=none;html=1;exitX=1;exitY=0.5;exitDx=0;exitDy=0;fontColor=#000000;endArrow=none;endFill=0;" edge="1" parent="1" source="eLOhmJnXAVCqOYRDWn_L-5" target="eLOhmJnXAVCqOYRDWn_L-12">
                    <mxGeometry relative="1" as="geometry">
                        <mxPoint x="260" y="550" as="targetPoint"/>
                        <mxPoint x="-130" y="550" as="sourcePoint"/>
                    </mxGeometry>
                </mxCell>
                <mxCell id="eLOhmJnXAVCqOYRDWn_L-43" style="edgeStyle=none;html=1;exitX=0.5;exitY=0;exitDx=0;exitDy=0;fontColor=#000000;endArrow=none;endFill=0;" edge="1" parent="1" source="eLOhmJnXAVCqOYRDWn_L-12" target="eLOhmJnXAVCqOYRDWn_L-44">
                    <mxGeometry relative="1" as="geometry">
                        <mxPoint x="200" y="300" as="targetPoint"/>
                    </mxGeometry>
                </mxCell>
                <mxCell id="eLOhmJnXAVCqOYRDWn_L-45" style="edgeStyle=none;html=1;exitX=0.5;exitY=1;exitDx=0;exitDy=0;fontColor=#000000;endArrow=none;endFill=0;" edge="1" parent="1" source="eLOhmJnXAVCqOYRDWn_L-12" target="eLOhmJnXAVCqOYRDWn_L-46">
                    <mxGeometry relative="1" as="geometry">
                        <mxPoint x="160" y="750" as="targetPoint"/>
                    </mxGeometry>
                </mxCell>
                <mxCell id="eLOhmJnXAVCqOYRDWn_L-47" style="edgeStyle=none;html=1;exitX=0.25;exitY=0;exitDx=0;exitDy=0;fontColor=#000000;endArrow=none;endFill=0;" edge="1" parent="1" source="eLOhmJnXAVCqOYRDWn_L-12" target="eLOhmJnXAVCqOYRDWn_L-48">
                    <mxGeometry relative="1" as="geometry">
                        <mxPoint x="30" y="400" as="targetPoint"/>
                    </mxGeometry>
                </mxCell>
                <mxCell id="eLOhmJnXAVCqOYRDWn_L-49" style="edgeStyle=none;html=1;exitX=0.25;exitY=1;exitDx=0;exitDy=0;fontColor=#000000;endArrow=none;endFill=0;" edge="1" parent="1" source="eLOhmJnXAVCqOYRDWn_L-12" target="eLOhmJnXAVCqOYRDWn_L-50">
                    <mxGeometry relative="1" as="geometry">
                        <mxPoint x="30" y="700" as="targetPoint"/>
                    </mxGeometry>
                </mxCell>
                <mxCell id="eLOhmJnXAVCqOYRDWn_L-51" style="edgeStyle=none;html=1;exitX=1;exitY=0;exitDx=0;exitDy=0;fontColor=#000000;endArrow=none;endFill=0;" edge="1" parent="1" source="eLOhmJnXAVCqOYRDWn_L-12" target="eLOhmJnXAVCqOYRDWn_L-52">
                    <mxGeometry relative="1" as="geometry">
                        <mxPoint x="250" y="420" as="targetPoint"/>
                    </mxGeometry>
                </mxCell>
                <mxCell id="eLOhmJnXAVCqOYRDWn_L-12" value="Pedido" style="rounded=0;whiteSpace=wrap;html=1;fontColor=#000000;fillColor=#FFFFFF;" vertex="1" parent="1">
                    <mxGeometry x="10" y="520" width="120" height="60" as="geometry"/>
                </mxCell>
                <mxCell id="eLOhmJnXAVCqOYRDWn_L-65" style="edgeStyle=none;html=1;exitX=0.25;exitY=1;exitDx=0;exitDy=0;fontColor=#000000;endArrow=none;endFill=0;" edge="1" parent="1" source="eLOhmJnXAVCqOYRDWn_L-14" target="eLOhmJnXAVCqOYRDWn_L-66">
                    <mxGeometry relative="1" as="geometry">
                        <mxPoint x="620" y="830" as="targetPoint"/>
                    </mxGeometry>
                </mxCell>
                <mxCell id="eLOhmJnXAVCqOYRDWn_L-67" style="edgeStyle=none;html=1;exitX=0.5;exitY=1;exitDx=0;exitDy=0;fontColor=#000000;endArrow=none;endFill=0;" edge="1" parent="1" source="eLOhmJnXAVCqOYRDWn_L-14" target="eLOhmJnXAVCqOYRDWn_L-68">
                    <mxGeometry relative="1" as="geometry">
                        <mxPoint x="700" y="690" as="targetPoint"/>
                    </mxGeometry>
                </mxCell>
                <mxCell id="eLOhmJnXAVCqOYRDWn_L-69" style="edgeStyle=none;html=1;exitX=0.5;exitY=0;exitDx=0;exitDy=0;fontColor=#000000;endArrow=none;endFill=0;" edge="1" parent="1" source="eLOhmJnXAVCqOYRDWn_L-14" target="eLOhmJnXAVCqOYRDWn_L-70">
                    <mxGeometry relative="1" as="geometry">
                        <mxPoint x="640" y="260.0000000000001" as="targetPoint"/>
                    </mxGeometry>
                </mxCell>
                <mxCell id="eLOhmJnXAVCqOYRDWn_L-71" style="edgeStyle=none;html=1;exitX=0.75;exitY=0;exitDx=0;exitDy=0;fontColor=#000000;endArrow=none;endFill=0;" edge="1" parent="1" source="eLOhmJnXAVCqOYRDWn_L-14" target="eLOhmJnXAVCqOYRDWn_L-72">
                    <mxGeometry relative="1" as="geometry">
                        <mxPoint x="800" y="380" as="targetPoint"/>
                    </mxGeometry>
                </mxCell>
                <mxCell id="eLOhmJnXAVCqOYRDWn_L-73" style="edgeStyle=none;html=1;exitX=1;exitY=0.5;exitDx=0;exitDy=0;fontColor=#000000;endArrow=none;endFill=0;" edge="1" parent="1" source="eLOhmJnXAVCqOYRDWn_L-14" target="eLOhmJnXAVCqOYRDWn_L-74">
                    <mxGeometry relative="1" as="geometry">
                        <mxPoint x="760" y="550" as="targetPoint"/>
                    </mxGeometry>
                </mxCell>
                <mxCell id="eLOhmJnXAVCqOYRDWn_L-75" style="edgeStyle=none;html=1;exitX=0.25;exitY=0;exitDx=0;exitDy=0;fontColor=#000000;endArrow=none;endFill=0;" edge="1" parent="1" source="eLOhmJnXAVCqOYRDWn_L-14" target="eLOhmJnXAVCqOYRDWn_L-76">
                    <mxGeometry relative="1" as="geometry">
                        <mxPoint x="480" y="210" as="targetPoint"/>
                    </mxGeometry>
                </mxCell>
                <mxCell id="eLOhmJnXAVCqOYRDWn_L-77" style="edgeStyle=none;html=1;exitX=1;exitY=1;exitDx=0;exitDy=0;fontColor=#000000;endArrow=none;endFill=0;" edge="1" parent="1" source="eLOhmJnXAVCqOYRDWn_L-14" target="eLOhmJnXAVCqOYRDWn_L-78">
                    <mxGeometry relative="1" as="geometry">
                        <mxPoint x="880" y="690" as="targetPoint"/>
                    </mxGeometry>
                </mxCell>
                <mxCell id="eLOhmJnXAVCqOYRDWn_L-79" style="edgeStyle=none;html=1;exitX=0;exitY=1;exitDx=0;exitDy=0;fontColor=#000000;endArrow=none;endFill=0;" edge="1" parent="1" source="eLOhmJnXAVCqOYRDWn_L-14" target="eLOhmJnXAVCqOYRDWn_L-80">
                    <mxGeometry relative="1" as="geometry">
                        <mxPoint x="299.04761904761904" y="1040" as="targetPoint"/>
                    </mxGeometry>
                </mxCell>
                <mxCell id="eLOhmJnXAVCqOYRDWn_L-14" value="Pagamento" style="rounded=0;whiteSpace=wrap;html=1;fontColor=#000000;fillColor=#FFFFFF;" vertex="1" parent="1">
                    <mxGeometry x="500" y="520" width="120" height="60" as="geometry"/>
                </mxCell>
                <mxCell id="eLOhmJnXAVCqOYRDWn_L-16" value="&lt;font color=&quot;#000000&quot;&gt;ID&lt;/font&gt;" style="ellipse;whiteSpace=wrap;html=1;aspect=fixed;fontColor=#ffffff;fillColor=#FFFFFF;" vertex="1" parent="1">
                    <mxGeometry x="-620" y="190" width="80" height="80" as="geometry"/>
                </mxCell>
                <mxCell id="eLOhmJnXAVCqOYRDWn_L-18" value="Nome" style="ellipse;whiteSpace=wrap;html=1;aspect=fixed;fontColor=#000000;fillColor=#FFFFFF;" vertex="1" parent="1">
                    <mxGeometry x="-470.0000000000001" y="190" width="80" height="80" as="geometry"/>
                </mxCell>
                <mxCell id="eLOhmJnXAVCqOYRDWn_L-20" value="Dados&lt;br&gt;Bancários" style="ellipse;whiteSpace=wrap;html=1;aspect=fixed;fontColor=#000000;fillColor=#FFFFFF;" vertex="1" parent="1">
                    <mxGeometry x="-600" y="760" width="80" height="80" as="geometry"/>
                </mxCell>
                <mxCell id="eLOhmJnXAVCqOYRDWn_L-22" value="CPF" style="ellipse;whiteSpace=wrap;html=1;aspect=fixed;fontColor=#000000;fillColor=#FFFFFF;" vertex="1" parent="1">
                    <mxGeometry x="-430" y="740" width="80" height="80" as="geometry"/>
                </mxCell>
                <mxCell id="eLOhmJnXAVCqOYRDWn_L-24" value="Endereço" style="ellipse;whiteSpace=wrap;html=1;aspect=fixed;fontColor=#000000;fillColor=#FFFFFF;" vertex="1" parent="1">
                    <mxGeometry x="-710" y="590" width="80" height="80" as="geometry"/>
                </mxCell>
                <mxCell id="eLOhmJnXAVCqOYRDWn_L-26" value="CEP" style="ellipse;whiteSpace=wrap;html=1;aspect=fixed;fontColor=#000000;fillColor=#FFFFFF;" vertex="1" parent="1">
                    <mxGeometry x="-720" y="360" width="80" height="80" as="geometry"/>
                </mxCell>
                <mxCell id="eLOhmJnXAVCqOYRDWn_L-28" value="ID" style="ellipse;whiteSpace=wrap;html=1;aspect=fixed;fontColor=#000000;fillColor=#FFFFFF;" vertex="1" parent="1">
                    <mxGeometry x="-280" y="200.0000000000001" width="80" height="80" as="geometry"/>
                </mxCell>
                <mxCell id="eLOhmJnXAVCqOYRDWn_L-30" value="Gênero" style="ellipse;whiteSpace=wrap;html=1;aspect=fixed;fontColor=#000000;fillColor=#FFFFFF;" vertex="1" parent="1">
                    <mxGeometry x="-400" y="320" width="80" height="80" as="geometry"/>
                </mxCell>
                <mxCell id="eLOhmJnXAVCqOYRDWn_L-32" value="Tipo&lt;br&gt;" style="ellipse;whiteSpace=wrap;html=1;aspect=fixed;fontColor=#000000;fillColor=#FFFFFF;" vertex="1" parent="1">
                    <mxGeometry x="-140" y="120" width="80" height="80" as="geometry"/>
                </mxCell>
                <mxCell id="eLOhmJnXAVCqOYRDWn_L-34" value="Quantidade" style="ellipse;whiteSpace=wrap;html=1;aspect=fixed;fontColor=#000000;fillColor=#FFFFFF;" vertex="1" parent="1">
                    <mxGeometry x="-259.80952380952385" y="800" width="80" height="80" as="geometry"/>
                </mxCell>
                <mxCell id="eLOhmJnXAVCqOYRDWn_L-36" value="Valor" style="ellipse;whiteSpace=wrap;html=1;aspect=fixed;fontColor=#000000;fillColor=#FFFFFF;" vertex="1" parent="1">
                    <mxGeometry x="-150" y="710" width="80" height="80" as="geometry"/>
                </mxCell>
                <mxCell id="eLOhmJnXAVCqOYRDWn_L-38" value="Fornecedor" style="ellipse;whiteSpace=wrap;html=1;aspect=fixed;fontColor=#000000;fillColor=#FFFFFF;" vertex="1" parent="1">
                    <mxGeometry x="-30" y="230.0000000000001" width="80" height="80" as="geometry"/>
                </mxCell>
                <mxCell id="eLOhmJnXAVCqOYRDWn_L-40" value="Descrição" style="ellipse;whiteSpace=wrap;html=1;aspect=fixed;fontColor=#000000;fillColor=#FFFFFF;" vertex="1" parent="1">
                    <mxGeometry x="40" y="810" width="80" height="80" as="geometry"/>
                </mxCell>
                <mxCell id="eLOhmJnXAVCqOYRDWn_L-42" value="Nome" style="ellipse;whiteSpace=wrap;html=1;aspect=fixed;fontColor=#000000;fillColor=#FFFFFF;" vertex="1" parent="1">
                    <mxGeometry x="-360" y="600" width="80" height="80" as="geometry"/>
                </mxCell>
                <mxCell id="eLOhmJnXAVCqOYRDWn_L-44" value="Quantidade" style="ellipse;whiteSpace=wrap;html=1;aspect=fixed;fontColor=#000000;fillColor=#FFFFFF;" vertex="1" parent="1">
                    <mxGeometry x="160" y="260" width="80" height="80" as="geometry"/>
                </mxCell>
                <mxCell id="eLOhmJnXAVCqOYRDWn_L-46" value="ID" style="ellipse;whiteSpace=wrap;html=1;aspect=fixed;fontColor=#000000;fillColor=#FFFFFF;" vertex="1" parent="1">
                    <mxGeometry x="120" y="710" width="80" height="80" as="geometry"/>
                </mxCell>
                <mxCell id="eLOhmJnXAVCqOYRDWn_L-48" value="Data/Hora" style="ellipse;whiteSpace=wrap;html=1;aspect=fixed;fontColor=#000000;fillColor=#FFFFFF;" vertex="1" parent="1">
                    <mxGeometry x="-10" y="360" width="80" height="80" as="geometry"/>
                </mxCell>
                <mxCell id="eLOhmJnXAVCqOYRDWn_L-50" value="Descriçâo" style="ellipse;whiteSpace=wrap;html=1;aspect=fixed;fontColor=#000000;fillColor=#FFFFFF;" vertex="1" parent="1">
                    <mxGeometry x="-10" y="660" width="80" height="80" as="geometry"/>
                </mxCell>
                <mxCell id="eLOhmJnXAVCqOYRDWn_L-52" value="Frete" style="ellipse;whiteSpace=wrap;html=1;aspect=fixed;fontColor=#000000;fillColor=#FFFFFF;" vertex="1" parent="1">
                    <mxGeometry x="210" y="380" width="80" height="80" as="geometry"/>
                </mxCell>
                <mxCell id="eLOhmJnXAVCqOYRDWn_L-54" value="Data/Hora" style="ellipse;whiteSpace=wrap;html=1;aspect=fixed;fontColor=#000000;fillColor=#FFFFFF;" vertex="1" parent="1">
                    <mxGeometry x="280.19047619047615" y="740" width="80" height="80" as="geometry"/>
                </mxCell>
                <mxCell id="eLOhmJnXAVCqOYRDWn_L-56" value="Prazo de Entrega" style="ellipse;whiteSpace=wrap;html=1;aspect=fixed;fontColor=#000000;fillColor=#FFFFFF;" vertex="1" parent="1">
                    <mxGeometry x="420" y="670" width="80" height="80" as="geometry"/>
                </mxCell>
                <mxCell id="eLOhmJnXAVCqOYRDWn_L-58" value="Endereço de Envio" style="ellipse;whiteSpace=wrap;html=1;aspect=fixed;fontColor=#000000;fillColor=#FFFFFF;" vertex="1" parent="1">
                    <mxGeometry x="430" y="380" width="80" height="80" as="geometry"/>
                </mxCell>
                <mxCell id="eLOhmJnXAVCqOYRDWn_L-60" value="Valor" style="ellipse;whiteSpace=wrap;html=1;aspect=fixed;fontColor=#000000;fillColor=#FFFFFF;" vertex="1" parent="1">
                    <mxGeometry x="280.19047619047615" y="220.0000000000001" width="80" height="80" as="geometry"/>
                </mxCell>
                <mxCell id="eLOhmJnXAVCqOYRDWn_L-62" value="Forma de Pagamento" style="ellipse;whiteSpace=wrap;html=1;aspect=fixed;fontColor=#000000;fillColor=#FFFFFF;" vertex="1" parent="1">
                    <mxGeometry x="190" y="630" width="80" height="80" as="geometry"/>
                </mxCell>
                <mxCell id="eLOhmJnXAVCqOYRDWn_L-64" value="ID" style="ellipse;whiteSpace=wrap;html=1;aspect=fixed;fontColor=#000000;fillColor=#FFFFFF;" vertex="1" parent="1">
                    <mxGeometry x="100" y="80.00000000000011" width="80" height="80" as="geometry"/>
                </mxCell>
                <mxCell id="eLOhmJnXAVCqOYRDWn_L-66" value="Condiçôes" style="ellipse;whiteSpace=wrap;html=1;aspect=fixed;fontColor=#000000;fillColor=#FFFFFF;" vertex="1" parent="1">
                    <mxGeometry x="580" y="790" width="80" height="80" as="geometry"/>
                </mxCell>
                <mxCell id="eLOhmJnXAVCqOYRDWn_L-68" value="Valor" style="ellipse;whiteSpace=wrap;html=1;aspect=fixed;fontColor=#000000;fillColor=#FFFFFF;" vertex="1" parent="1">
                    <mxGeometry x="660" y="650" width="80" height="80" as="geometry"/>
                </mxCell>
                <mxCell id="eLOhmJnXAVCqOYRDWn_L-70" value="Forma de Pagamento" style="ellipse;whiteSpace=wrap;html=1;aspect=fixed;fontColor=#000000;fillColor=#FFFFFF;" vertex="1" parent="1">
                    <mxGeometry x="600" y="220.0000000000001" width="80" height="80" as="geometry"/>
                </mxCell>
                <mxCell id="eLOhmJnXAVCqOYRDWn_L-72" value="Data/Hora" style="ellipse;whiteSpace=wrap;html=1;aspect=fixed;fontColor=#000000;fillColor=#FFFFFF;" vertex="1" parent="1">
                    <mxGeometry x="760" y="340" width="80" height="80" as="geometry"/>
                </mxCell>
                <mxCell id="eLOhmJnXAVCqOYRDWn_L-74" value="Fonte Pagadora" style="ellipse;whiteSpace=wrap;html=1;aspect=fixed;fontColor=#000000;fillColor=#FFFFFF;" vertex="1" parent="1">
                    <mxGeometry x="720" y="510" width="80" height="80" as="geometry"/>
                </mxCell>
                <mxCell id="eLOhmJnXAVCqOYRDWn_L-76" value="Fonte Receptora" style="ellipse;whiteSpace=wrap;html=1;aspect=fixed;fontColor=#000000;fillColor=#FFFFFF;" vertex="1" parent="1">
                    <mxGeometry x="440" y="170" width="80" height="80" as="geometry"/>
                </mxCell>
                <mxCell id="eLOhmJnXAVCqOYRDWn_L-78" value="ID" style="ellipse;whiteSpace=wrap;html=1;aspect=fixed;fontColor=#000000;fillColor=#FFFFFF;" vertex="1" parent="1">
                    <mxGeometry x="840" y="650" width="80" height="80" as="geometry"/>
                </mxCell>
                <mxCell id="eLOhmJnXAVCqOYRDWn_L-80" value="Local de Pagamento" style="ellipse;whiteSpace=wrap;html=1;aspect=fixed;fontColor=#000000;fillColor=#FFFFFF;" vertex="1" parent="1">
                    <mxGeometry x="259.04761904761904" y="1000" width="80" height="80" as="geometry"/>
                </mxCell>
            </root>
        </mxGraphModel>
    </diagram>
    <diagram id="dr1Qvx88KBJaIVN_RhD0" name="Sistema de Gestão Escolar">
        <mxGraphModel dx="699" dy="916" grid="1" gridSize="10" guides="1" tooltips="1" connect="1" arrows="1" fold="1" page="1" pageScale="1" pageWidth="850" pageHeight="1100" math="0" shadow="0">
            <root>
                <mxCell id="0"/>
                <mxCell id="1" parent="0"/>
                <mxCell id="5pq191WIj33Pu9iKwqxX-2" value="&lt;font color=&quot;#ffffff&quot;&gt;1:1&lt;/font&gt;" style="edgeStyle=none;html=1;exitX=1;exitY=0.5;exitDx=0;exitDy=0;fontColor=#000000;endArrow=none;endFill=0;" edge="1" parent="1" source="5pq191WIj33Pu9iKwqxX-1" target="5pq191WIj33Pu9iKwqxX-3">
                    <mxGeometry relative="1" as="geometry">
                        <mxPoint x="400" y="559.75" as="targetPoint"/>
                    </mxGeometry>
                </mxCell>
                <mxCell id="5pq191WIj33Pu9iKwqxX-10" style="edgeStyle=none;html=1;exitX=0.25;exitY=0;exitDx=0;exitDy=0;fontColor=#FFFFFF;endArrow=none;endFill=0;" edge="1" parent="1" source="5pq191WIj33Pu9iKwqxX-1" target="5pq191WIj33Pu9iKwqxX-11">
                    <mxGeometry relative="1" as="geometry">
                        <mxPoint x="80" y="430" as="targetPoint"/>
                    </mxGeometry>
                </mxCell>
                <mxCell id="5pq191WIj33Pu9iKwqxX-12" style="edgeStyle=none;html=1;exitX=0.5;exitY=0;exitDx=0;exitDy=0;fontColor=#000000;endArrow=none;endFill=0;" edge="1" parent="1" source="5pq191WIj33Pu9iKwqxX-1" target="5pq191WIj33Pu9iKwqxX-13">
                    <mxGeometry relative="1" as="geometry">
                        <mxPoint x="160" y="260" as="targetPoint"/>
                    </mxGeometry>
                </mxCell>
                <mxCell id="5pq191WIj33Pu9iKwqxX-14" style="edgeStyle=none;html=1;exitX=0.75;exitY=0;exitDx=0;exitDy=0;fontColor=#000000;endArrow=none;endFill=0;" edge="1" parent="1" source="5pq191WIj33Pu9iKwqxX-1" target="5pq191WIj33Pu9iKwqxX-15">
                    <mxGeometry relative="1" as="geometry">
                        <mxPoint x="270" y="160" as="targetPoint"/>
                    </mxGeometry>
                </mxCell>
                <mxCell id="5pq191WIj33Pu9iKwqxX-16" style="edgeStyle=none;html=1;exitX=1;exitY=0;exitDx=0;exitDy=0;fontColor=#000000;endArrow=none;endFill=0;" edge="1" parent="1" source="5pq191WIj33Pu9iKwqxX-1" target="5pq191WIj33Pu9iKwqxX-17">
                    <mxGeometry relative="1" as="geometry">
                        <mxPoint x="360" y="210" as="targetPoint"/>
                    </mxGeometry>
                </mxCell>
                <mxCell id="5pq191WIj33Pu9iKwqxX-18" style="edgeStyle=none;html=1;exitX=0.25;exitY=1;exitDx=0;exitDy=0;fontColor=#000000;endArrow=none;endFill=0;" edge="1" parent="1" source="5pq191WIj33Pu9iKwqxX-1" target="5pq191WIj33Pu9iKwqxX-19">
                    <mxGeometry relative="1" as="geometry">
                        <mxPoint x="90" y="770" as="targetPoint"/>
                    </mxGeometry>
                </mxCell>
                <mxCell id="5pq191WIj33Pu9iKwqxX-20" style="edgeStyle=none;html=1;exitX=0.5;exitY=1;exitDx=0;exitDy=0;fontColor=#000000;endArrow=none;endFill=0;" edge="1" parent="1" source="5pq191WIj33Pu9iKwqxX-1" target="5pq191WIj33Pu9iKwqxX-21">
                    <mxGeometry relative="1" as="geometry">
                        <mxPoint x="200" y="840" as="targetPoint"/>
                    </mxGeometry>
                </mxCell>
                <mxCell id="5pq191WIj33Pu9iKwqxX-22" style="edgeStyle=none;html=1;exitX=0.75;exitY=1;exitDx=0;exitDy=0;fontColor=#000000;endArrow=none;endFill=0;" edge="1" parent="1" source="5pq191WIj33Pu9iKwqxX-1" target="5pq191WIj33Pu9iKwqxX-23">
                    <mxGeometry relative="1" as="geometry">
                        <mxPoint x="380" y="850" as="targetPoint"/>
                    </mxGeometry>
                </mxCell>
                <mxCell id="5pq191WIj33Pu9iKwqxX-1" value="Matrícula" style="rounded=0;whiteSpace=wrap;html=1;fontColor=#000000;fillColor=#FFFFFF;" vertex="1" parent="1">
                    <mxGeometry x="100" y="530" width="120" height="60" as="geometry"/>
                </mxCell>
                <mxCell id="5pq191WIj33Pu9iKwqxX-4" value="&lt;font color=&quot;#ffffff&quot;&gt;1:1&lt;/font&gt;" style="edgeStyle=none;html=1;exitX=1;exitY=0.5;exitDx=0;exitDy=0;fontColor=#000000;endArrow=none;endFill=0;" edge="1" parent="1" source="5pq191WIj33Pu9iKwqxX-3" target="5pq191WIj33Pu9iKwqxX-5">
                    <mxGeometry relative="1" as="geometry">
                        <mxPoint x="660" y="559.75" as="targetPoint"/>
                    </mxGeometry>
                </mxCell>
                <mxCell id="5pq191WIj33Pu9iKwqxX-24" style="edgeStyle=none;html=1;exitX=0.25;exitY=0;exitDx=0;exitDy=0;fontColor=#000000;endArrow=none;endFill=0;" edge="1" parent="1" source="5pq191WIj33Pu9iKwqxX-3" target="5pq191WIj33Pu9iKwqxX-25">
                    <mxGeometry relative="1" as="geometry">
                        <mxPoint x="370" y="379" as="targetPoint"/>
                    </mxGeometry>
                </mxCell>
                <mxCell id="5pq191WIj33Pu9iKwqxX-26" style="edgeStyle=none;html=1;exitX=0.5;exitY=0;exitDx=0;exitDy=0;fontColor=#000000;endArrow=none;endFill=0;" edge="1" parent="1" source="5pq191WIj33Pu9iKwqxX-3" target="5pq191WIj33Pu9iKwqxX-27">
                    <mxGeometry relative="1" as="geometry">
                        <mxPoint x="500" y="210" as="targetPoint"/>
                    </mxGeometry>
                </mxCell>
                <mxCell id="5pq191WIj33Pu9iKwqxX-28" style="edgeStyle=none;html=1;exitX=0.75;exitY=0;exitDx=0;exitDy=0;fontColor=#000000;endArrow=none;endFill=0;" edge="1" parent="1" source="5pq191WIj33Pu9iKwqxX-3" target="5pq191WIj33Pu9iKwqxX-29">
                    <mxGeometry relative="1" as="geometry">
                        <mxPoint x="549.9999999999998" y="310" as="targetPoint"/>
                    </mxGeometry>
                </mxCell>
                <mxCell id="5pq191WIj33Pu9iKwqxX-30" style="edgeStyle=none;html=1;exitX=0.25;exitY=1;exitDx=0;exitDy=0;fontColor=#000000;endArrow=none;endFill=0;" edge="1" parent="1" source="5pq191WIj33Pu9iKwqxX-3" target="5pq191WIj33Pu9iKwqxX-31">
                    <mxGeometry relative="1" as="geometry">
                        <mxPoint x="370.41176470588243" y="730" as="targetPoint"/>
                    </mxGeometry>
                </mxCell>
                <mxCell id="5pq191WIj33Pu9iKwqxX-32" style="edgeStyle=none;html=1;exitX=0.5;exitY=1;exitDx=0;exitDy=0;fontColor=#000000;endArrow=none;endFill=0;" edge="1" parent="1" source="5pq191WIj33Pu9iKwqxX-3" target="5pq191WIj33Pu9iKwqxX-33">
                    <mxGeometry relative="1" as="geometry">
                        <mxPoint x="549.9999999999998" y="900" as="targetPoint"/>
                    </mxGeometry>
                </mxCell>
                <mxCell id="5pq191WIj33Pu9iKwqxX-34" style="edgeStyle=none;html=1;exitX=0.75;exitY=1;exitDx=0;exitDy=0;fontColor=#000000;endArrow=none;endFill=0;" edge="1" parent="1" source="5pq191WIj33Pu9iKwqxX-3" target="5pq191WIj33Pu9iKwqxX-35">
                    <mxGeometry relative="1" as="geometry">
                        <mxPoint x="579.9999999999998" y="800" as="targetPoint"/>
                    </mxGeometry>
                </mxCell>
                <mxCell id="5pq191WIj33Pu9iKwqxX-3" value="Aluno" style="rounded=0;whiteSpace=wrap;html=1;fontColor=#000000;fillColor=#FFFFFF;" vertex="1" parent="1">
                    <mxGeometry x="340" y="529.75" width="120" height="60" as="geometry"/>
                </mxCell>
                <mxCell id="5pq191WIj33Pu9iKwqxX-6" value="&lt;font color=&quot;#ffffff&quot;&gt;1:N&lt;/font&gt;" style="edgeStyle=none;html=1;exitX=1;exitY=0.5;exitDx=0;exitDy=0;fontColor=#000000;endArrow=none;endFill=0;" edge="1" parent="1" source="5pq191WIj33Pu9iKwqxX-5" target="5pq191WIj33Pu9iKwqxX-7">
                    <mxGeometry relative="1" as="geometry">
                        <mxPoint x="950" y="559.9950000000001" as="targetPoint"/>
                    </mxGeometry>
                </mxCell>
                <mxCell id="5pq191WIj33Pu9iKwqxX-36" style="edgeStyle=none;html=1;exitX=1;exitY=0;exitDx=0;exitDy=0;fontColor=#000000;endArrow=none;endFill=0;" edge="1" parent="1" source="5pq191WIj33Pu9iKwqxX-5" target="5pq191WIj33Pu9iKwqxX-37">
                    <mxGeometry relative="1" as="geometry">
                        <mxPoint x="799.9999999999998" y="280" as="targetPoint"/>
                    </mxGeometry>
                </mxCell>
                <mxCell id="5pq191WIj33Pu9iKwqxX-38" style="edgeStyle=none;html=1;exitX=0;exitY=0;exitDx=0;exitDy=0;fontColor=#000000;endArrow=none;endFill=0;" edge="1" parent="1" source="5pq191WIj33Pu9iKwqxX-5" target="5pq191WIj33Pu9iKwqxX-39">
                    <mxGeometry relative="1" as="geometry">
                        <mxPoint x="646.8823529411766" y="200" as="targetPoint"/>
                    </mxGeometry>
                </mxCell>
                <mxCell id="5pq191WIj33Pu9iKwqxX-40" style="edgeStyle=none;html=1;exitX=1;exitY=1;exitDx=0;exitDy=0;fontColor=#000000;endArrow=none;endFill=0;" edge="1" parent="1" source="5pq191WIj33Pu9iKwqxX-5" target="5pq191WIj33Pu9iKwqxX-41">
                    <mxGeometry relative="1" as="geometry">
                        <mxPoint x="779.9999999999998" y="890" as="targetPoint"/>
                    </mxGeometry>
                </mxCell>
                <mxCell id="5pq191WIj33Pu9iKwqxX-5" value="Estuda" style="rhombus;whiteSpace=wrap;html=1;fontColor=#000000;fillColor=#FFFFFF;" vertex="1" parent="1">
                    <mxGeometry x="620" y="505.12" width="109.75" height="109.75" as="geometry"/>
                </mxCell>
                <mxCell id="5pq191WIj33Pu9iKwqxX-8" value="&lt;font color=&quot;#ffffff&quot;&gt;N:N&lt;/font&gt;" style="edgeStyle=none;html=1;exitX=1;exitY=0.5;exitDx=0;exitDy=0;fontColor=#000000;endArrow=none;endFill=0;" edge="1" parent="1" source="5pq191WIj33Pu9iKwqxX-7" target="5pq191WIj33Pu9iKwqxX-9">
                    <mxGeometry relative="1" as="geometry">
                        <mxPoint x="1240" y="559.9950000000001" as="targetPoint"/>
                    </mxGeometry>
                </mxCell>
                <mxCell id="5pq191WIj33Pu9iKwqxX-7" value="Disciplina" style="rounded=0;whiteSpace=wrap;html=1;fontColor=#000000;fillColor=#FFFFFF;" vertex="1" parent="1">
                    <mxGeometry x="890" y="529.9950000000001" width="120" height="60" as="geometry"/>
                </mxCell>
                <mxCell id="5pq191WIj33Pu9iKwqxX-9" value="Professor" style="rounded=0;whiteSpace=wrap;html=1;fontColor=#000000;fillColor=#FFFFFF;" vertex="1" parent="1">
                    <mxGeometry x="1180" y="529.9950000000001" width="120" height="60" as="geometry"/>
                </mxCell>
                <mxCell id="5pq191WIj33Pu9iKwqxX-11" value="&lt;font color=&quot;#000000&quot;&gt;ID&lt;/font&gt;" style="ellipse;whiteSpace=wrap;html=1;aspect=fixed;fontColor=#FFFFFF;fillColor=#FFFFFF;" vertex="1" parent="1">
                    <mxGeometry x="40" y="390" width="80" height="80" as="geometry"/>
                </mxCell>
                <mxCell id="5pq191WIj33Pu9iKwqxX-13" value="Endereço" style="ellipse;whiteSpace=wrap;html=1;aspect=fixed;fontColor=#000000;fillColor=#FFFFFF;" vertex="1" parent="1">
                    <mxGeometry x="120" y="220" width="80" height="80" as="geometry"/>
                </mxCell>
                <mxCell id="5pq191WIj33Pu9iKwqxX-15" value="CPF" style="ellipse;whiteSpace=wrap;html=1;aspect=fixed;fontColor=#000000;fillColor=#FFFFFF;" vertex="1" parent="1">
                    <mxGeometry x="230" y="120" width="80" height="80" as="geometry"/>
                </mxCell>
                <mxCell id="5pq191WIj33Pu9iKwqxX-17" value="Mensalidade" style="ellipse;whiteSpace=wrap;html=1;aspect=fixed;fontColor=#000000;fillColor=#FFFFFF;" vertex="1" parent="1">
                    <mxGeometry x="320" y="170" width="80" height="80" as="geometry"/>
                </mxCell>
                <mxCell id="5pq191WIj33Pu9iKwqxX-19" value="Telefone" style="ellipse;whiteSpace=wrap;html=1;aspect=fixed;fontColor=#000000;fillColor=#FFFFFF;" vertex="1" parent="1">
                    <mxGeometry x="50" y="730" width="80" height="80" as="geometry"/>
                </mxCell>
                <mxCell id="5pq191WIj33Pu9iKwqxX-21" value="Data/Hora" style="ellipse;whiteSpace=wrap;html=1;aspect=fixed;fontColor=#000000;fillColor=#FFFFFF;" vertex="1" parent="1">
                    <mxGeometry x="160" y="800" width="80" height="80" as="geometry"/>
                </mxCell>
                <mxCell id="5pq191WIj33Pu9iKwqxX-23" value="Validade" style="ellipse;whiteSpace=wrap;html=1;aspect=fixed;fontColor=#000000;fillColor=#FFFFFF;" vertex="1" parent="1">
                    <mxGeometry x="340" y="810" width="80" height="80" as="geometry"/>
                </mxCell>
                <mxCell id="5pq191WIj33Pu9iKwqxX-25" value="ID" style="ellipse;whiteSpace=wrap;html=1;aspect=fixed;fontColor=#000000;fillColor=#FFFFFF;" vertex="1" parent="1">
                    <mxGeometry x="330" y="339" width="80" height="80" as="geometry"/>
                </mxCell>
                <mxCell id="5pq191WIj33Pu9iKwqxX-27" value="Nome" style="ellipse;whiteSpace=wrap;html=1;aspect=fixed;fontColor=#000000;fillColor=#FFFFFF;" vertex="1" parent="1">
                    <mxGeometry x="460" y="170" width="80" height="80" as="geometry"/>
                </mxCell>
                <mxCell id="5pq191WIj33Pu9iKwqxX-29" value="Idade" style="ellipse;whiteSpace=wrap;html=1;aspect=fixed;fontColor=#000000;fillColor=#FFFFFF;" vertex="1" parent="1">
                    <mxGeometry x="509.9999999999998" y="270" width="80" height="80" as="geometry"/>
                </mxCell>
                <mxCell id="5pq191WIj33Pu9iKwqxX-31" value="Telefone" style="ellipse;whiteSpace=wrap;html=1;aspect=fixed;fontColor=#000000;fillColor=#FFFFFF;" vertex="1" parent="1">
                    <mxGeometry x="330.41176470588243" y="690" width="80" height="80" as="geometry"/>
                </mxCell>
                <mxCell id="5pq191WIj33Pu9iKwqxX-33" value="Endereço" style="ellipse;whiteSpace=wrap;html=1;aspect=fixed;fontColor=#000000;fillColor=#FFFFFF;" vertex="1" parent="1">
                    <mxGeometry x="509.9999999999998" y="860" width="80" height="80" as="geometry"/>
                </mxCell>
                <mxCell id="5pq191WIj33Pu9iKwqxX-35" value="CPF" style="ellipse;whiteSpace=wrap;html=1;aspect=fixed;fontColor=#000000;fillColor=#FFFFFF;" vertex="1" parent="1">
                    <mxGeometry x="539.9999999999998" y="760" width="80" height="80" as="geometry"/>
                </mxCell>
                <mxCell id="5pq191WIj33Pu9iKwqxX-37" value="ID" style="ellipse;whiteSpace=wrap;html=1;aspect=fixed;fontColor=#000000;fillColor=#FFFFFF;" vertex="1" parent="1">
                    <mxGeometry x="759.9999999999998" y="240" width="80" height="80" as="geometry"/>
                </mxCell>
                <mxCell id="5pq191WIj33Pu9iKwqxX-39" value="Instituição" style="ellipse;whiteSpace=wrap;html=1;aspect=fixed;fontColor=#000000;fillColor=#FFFFFF;" vertex="1" parent="1">
                    <mxGeometry x="606.8823529411766" y="160" width="80" height="80" as="geometry"/>
                </mxCell>
                <mxCell id="5pq191WIj33Pu9iKwqxX-41" value="Disciplinas" style="ellipse;whiteSpace=wrap;html=1;aspect=fixed;fontColor=#000000;fillColor=#FFFFFF;" vertex="1" parent="1">
                    <mxGeometry x="739.9999999999998" y="850" width="80" height="80" as="geometry"/>
                </mxCell>
            </root>
        </mxGraphModel>
    </diagram>
</mxfile>